<svg width="631" height="141" viewBox="0 0 631 141" fill="none" xmlns="http://www.w3.org/2000/svg">
<path d="M463.758 26.6875V112H444.715V26.6875H463.758ZM489.715 26.6875V41.5117H419.285V26.6875H489.715ZM512.566 63.3672V112H494.285V48.6016H511.453L512.566 63.3672ZM531.492 48.1328L531.199 65.1836C530.418 65.0664 529.402 64.9688 528.152 64.8906C526.902 64.7734 525.828 64.7148 524.93 64.7148C522.586 64.7148 520.555 65.0078 518.836 65.5938C517.156 66.1406 515.75 66.9609 514.617 68.0547C513.523 69.1484 512.703 70.5156 512.156 72.1562C511.609 73.7578 511.336 75.6133 511.336 77.7227L507.879 76.0234C507.879 71.8438 508.289 68.0156 509.109 64.5391C509.93 61.0625 511.121 58.0547 512.684 55.5156C514.246 52.9375 516.16 50.9453 518.426 49.5391C520.691 48.1328 523.27 47.4297 526.16 47.4297C527.098 47.4297 528.055 47.4883 529.031 47.6055C530.008 47.7227 530.828 47.8984 531.492 48.1328ZM570.691 96.8828V69.6953C570.691 67.7812 570.398 66.1406 569.812 64.7734C569.227 63.4062 568.309 62.332 567.059 61.5508C565.809 60.7695 564.188 60.3789 562.195 60.3789C560.516 60.3789 559.051 60.6719 557.801 61.2578C556.59 61.8438 555.652 62.6836 554.988 63.7773C554.363 64.8711 554.051 66.2188 554.051 67.8203H535.77C535.77 64.9688 536.414 62.3125 537.703 59.8516C538.992 57.3906 540.828 55.2227 543.211 53.3477C545.633 51.4727 548.523 50.0273 551.883 49.0117C555.242 47.957 559.012 47.4297 563.191 47.4297C568.152 47.4297 572.566 48.2695 576.434 49.9492C580.34 51.5898 583.426 54.0703 585.691 57.3906C587.957 60.6719 589.09 64.8125 589.09 69.8125V96.3555C589.09 100.184 589.305 103.191 589.734 105.379C590.203 107.527 590.867 109.402 591.727 111.004V112H573.27C572.41 110.164 571.766 107.898 571.336 105.203C570.906 102.469 570.691 99.6953 570.691 96.8828ZM572.977 73.3281L573.094 83.4062H564.012C561.98 83.4062 560.223 83.6602 558.738 84.168C557.293 84.6758 556.121 85.3789 555.223 86.2773C554.324 87.1367 553.66 88.1523 553.23 89.3242C552.84 90.457 552.645 91.707 552.645 93.0742C552.645 94.3633 552.957 95.5352 553.582 96.5898C554.207 97.6055 555.066 98.4062 556.16 98.9922C557.254 99.5781 558.523 99.8711 559.969 99.8711C562.352 99.8711 564.383 99.4023 566.062 98.4648C567.781 97.5273 569.109 96.3945 570.047 95.0664C570.984 93.6992 571.453 92.4297 571.453 91.2578L575.848 98.875C575.145 100.438 574.285 102.059 573.27 103.738C572.254 105.379 570.965 106.922 569.402 108.367C567.84 109.773 565.945 110.926 563.719 111.824C561.531 112.723 558.895 113.172 555.809 113.172C551.824 113.172 548.211 112.371 544.969 110.77C541.727 109.129 539.129 106.883 537.176 104.031C535.262 101.18 534.305 97.8984 534.305 94.1875C534.305 90.8672 534.91 87.918 536.121 85.3398C537.332 82.7617 539.148 80.5742 541.57 78.7773C544.031 76.9805 547.117 75.6328 550.828 74.7344C554.539 73.7969 558.875 73.3281 563.836 73.3281H572.977ZM602.098 103.328C602.098 100.672 603.035 98.4453 604.91 96.6484C606.824 94.8516 609.305 93.9531 612.352 93.9531C615.438 93.9531 617.898 94.8516 619.734 96.6484C621.609 98.4453 622.547 100.672 622.547 103.328C622.547 105.945 621.609 108.152 619.734 109.949C617.898 111.746 615.438 112.645 612.352 112.645C609.305 112.645 606.824 111.746 604.91 109.949C603.035 108.152 602.098 105.945 602.098 103.328Z" fill="#5B03CA"/>
<path d="M135.758 26.6875V112H116.715V26.6875H135.758ZM161.715 26.6875V41.5117H91.2852V26.6875H161.715ZM156.324 80.9453V79.7148C156.324 75.0664 156.988 70.7891 158.316 66.8828C159.645 62.9375 161.598 59.5195 164.176 56.6289C166.754 53.7383 169.918 51.4922 173.668 49.8906C177.418 48.25 181.715 47.4297 186.559 47.4297C191.48 47.4297 195.816 48.25 199.566 49.8906C203.355 51.4922 206.539 53.7383 209.117 56.6289C211.695 59.5195 213.648 62.9375 214.977 66.8828C216.305 70.7891 216.969 75.0664 216.969 79.7148V80.9453C216.969 85.5547 216.305 89.832 214.977 93.7773C213.648 97.6836 211.695 101.102 209.117 104.031C206.539 106.922 203.375 109.168 199.625 110.77C195.875 112.371 191.559 113.172 186.676 113.172C181.832 113.172 177.516 112.371 173.727 110.77C169.938 109.168 166.754 106.922 164.176 104.031C161.598 101.102 159.645 97.6836 158.316 93.7773C156.988 89.832 156.324 85.5547 156.324 80.9453ZM174.664 79.7148V80.9453C174.664 83.4453 174.859 85.7891 175.25 87.9766C175.68 90.1641 176.363 92.0781 177.301 93.7188C178.238 95.3594 179.469 96.6484 180.992 97.5859C182.555 98.4844 184.449 98.9336 186.676 98.9336C188.902 98.9336 190.777 98.4844 192.301 97.5859C193.824 96.6484 195.055 95.3594 195.992 93.7188C196.93 92.0781 197.594 90.1641 197.984 87.9766C198.414 85.7891 198.629 83.4453 198.629 80.9453V79.7148C198.629 77.2539 198.414 74.9492 197.984 72.8008C197.594 70.6133 196.93 68.6797 195.992 67C195.055 65.3203 193.805 64.0117 192.242 63.0742C190.719 62.1367 188.824 61.668 186.559 61.668C184.371 61.668 182.516 62.1367 180.992 63.0742C179.469 64.0117 178.238 65.3203 177.301 67C176.363 68.6797 175.68 70.6133 175.25 72.8008C174.859 74.9492 174.664 77.2539 174.664 79.7148ZM244.977 21.9414V112H226.637V21.9414H244.977ZM285.23 48.6016L257.633 80.4766L243.043 95.125L235.719 82.7617L247.555 67.4688L263.199 48.6016H285.23ZM265.895 112L248.023 82.8789L261.148 72.625L286.871 112H265.895ZM320.211 113.172C315.172 113.172 310.66 112.371 306.676 110.77C302.691 109.168 299.312 106.961 296.539 104.148C293.805 101.297 291.715 98.0156 290.27 94.3047C288.824 90.5938 288.102 86.6289 288.102 82.4102V80.1836C288.102 75.457 288.766 71.1016 290.094 67.1172C291.422 63.1328 293.355 59.6758 295.895 56.7461C298.473 53.7773 301.637 51.4922 305.387 49.8906C309.137 48.25 313.414 47.4297 318.219 47.4297C322.711 47.4297 326.715 48.1719 330.23 49.6562C333.746 51.1016 336.715 53.1914 339.137 55.9258C341.559 58.6211 343.395 61.8828 344.645 65.7109C345.934 69.5 346.578 73.7578 346.578 78.4844V85.9844H295.484V74.207H328.648V72.8008C328.648 70.5742 328.238 68.6211 327.418 66.9414C326.637 65.2617 325.465 63.9727 323.902 63.0742C322.379 62.1367 320.445 61.668 318.102 61.668C315.875 61.668 314.02 62.1367 312.535 63.0742C311.051 64.0117 309.859 65.3398 308.961 67.0586C308.102 68.7383 307.477 70.7109 307.086 72.9766C306.695 75.2031 306.5 77.6055 306.5 80.1836V82.4102C306.5 84.8711 306.832 87.1172 307.496 89.1484C308.16 91.1797 309.137 92.918 310.426 94.3633C311.715 95.8086 313.277 96.9414 315.113 97.7617C316.949 98.582 319.039 98.9922 321.383 98.9922C324.273 98.9922 327.027 98.4453 329.645 97.3516C332.262 96.2188 334.527 94.4609 336.441 92.0781L344.996 101.863C343.707 103.738 341.891 105.555 339.547 107.312C337.242 109.031 334.469 110.438 331.227 111.531C327.984 112.625 324.312 113.172 320.211 113.172ZM373.414 62.1367V112H355.074V48.6016H372.301L373.414 62.1367ZM371.012 78.0742L366.441 78.1914C366.441 73.4258 367.027 69.1484 368.199 65.3594C369.371 61.5703 371.031 58.3477 373.18 55.6914C375.367 52.9961 377.965 50.9453 380.973 49.5391C384.02 48.1328 387.379 47.4297 391.051 47.4297C394.02 47.4297 396.734 47.8594 399.195 48.7188C401.656 49.5781 403.766 50.9648 405.523 52.8789C407.32 54.7539 408.688 57.2539 409.625 60.3789C410.562 63.4648 411.031 67.2734 411.031 71.8047V112H392.633V71.7461C392.633 69.0898 392.262 67.0391 391.52 65.5938C390.777 64.1484 389.684 63.1328 388.238 62.5469C386.832 61.9609 385.113 61.668 383.082 61.668C380.934 61.668 379.098 62.0977 377.574 62.957C376.051 63.7773 374.801 64.9297 373.824 66.4141C372.848 67.8984 372.125 69.6367 371.656 71.6289C371.227 73.6211 371.012 75.7695 371.012 78.0742Z" fill="#41066D"/>
<path d="M24.4211 83.4923L0.35123 83.5933C0.264276 83.5933 0.180883 83.5569 0.119397 83.4923C0.0579114 83.4277 0.0233688 83.3401 0.0233688 83.2487C-0.012463 70.1692 -0.00708886 60.7963 0.0394925 55.13C0.163112 41.1187 11.5146 29.0331 24.6022 27.2315C25.6306 27.0885 28.4559 27.0245 33.0782 27.0395C37.3386 27.0584 43.8744 27.0452 52.6854 27C52.7823 27 52.8753 27.0405 52.9438 27.1125C53.0124 27.1845 53.0509 27.2822 53.0509 27.384V55.1752C53.0509 55.2396 53.0752 55.3014 53.1186 55.3469C53.1619 55.3925 53.2207 55.418 53.282 55.418H79.6829C79.721 55.418 79.7587 55.4258 79.794 55.4408C79.8292 55.4559 79.8612 55.4779 79.8881 55.5057C79.9151 55.5335 79.9364 55.5665 79.951 55.6028C79.9656 55.6391 79.9731 55.6781 79.9731 55.7174C79.9839 58.2361 79.9928 66.4231 80 80.2782C80 84.7133 79.7187 87.9813 79.1562 90.0822C75.8238 102.501 64.6926 111.983 52.2178 111.96C45.2198 111.949 36.9069 111.962 27.2788 112C27.189 112 27.1029 111.963 27.0394 111.897C26.9759 111.832 26.9402 111.743 26.9402 111.65V85.8802C26.9402 85.8402 41.6988 85.9172 41.6842 85.8802C41.6696 85.8432 41.7112 61.1169 41.6842 61.0885C41.6573 61.0602 24.4563 61.1039 24.4211 61.0885C24.3858 61.0732 24.4592 83.4923 24.4211 83.4923Z" fill="url(#paint0_linear_6618_8176)"/>
<defs>
<linearGradient id="paint0_linear_6618_8176" x1="40" y1="27" x2="40" y2="112" gradientUnits="userSpaceOnUse">
<stop stop-color="#7D26EB"/>
<stop offset="1" stop-color="#471685"/>
</linearGradient>
</defs>
</svg>
